<?xml version="1.0" encoding="utf-8"?>
<!-- Generator: Adobe Illustrator 16.0.3, SVG Export Plug-In . SVG Version: 6.00 Build 0)  -->
<!DOCTYPE svg PUBLIC "-//W3C//DTD SVG 1.1//EN" "http://www.w3.org/Graphics/SVG/1.1/DTD/svg11.dtd">
<svg version="1.1" id="Layer_1" xmlns="http://www.w3.org/2000/svg" xmlns:xlink="http://www.w3.org/1999/xlink" x="0px" y="0px"
	 width="1200px" height="435px" viewBox="0 0 1200 435" enable-background="new 0 0 1200 435" xml:space="preserve">
<path fill="#FFFFFF" d="M1400,1411.438c0,0-423.837-99.721-696.499-99.721C436.296,1311.717,0,1411.438,0,1411.438v232.539h1400
	V1411.438L1400,1411.438z"/>
<rect y="846.74" fill="#FFFFFF" width="1400" height="332.26"/>
<rect x="-159.098" y="687.645" transform="matrix(-0.7071 0.7071 -0.7071 -0.7071 598.7191 1445.4736)" fill="#FFFFFF" width="318.182" height="318.181"/>
<rect x="1240.892" y="687.65" transform="matrix(-0.7071 0.7071 -0.7071 -0.7071 2988.6577 455.5399)" fill="#FFFFFF" width="318.183" height="318.183"/>
<path fill="#002136" d="M1150,102.74H50c0,27.614-22.386,50-50,50V435h1200V152.74C1172.386,152.74,1150,130.354,1150,102.74z"/>
</svg>
